<svg id="surface1" xmlns="http://www.w3.org/2000/svg" width="25.002" height="25.002" viewBox="0 0 25.002 25.002">
  <path id="Path_48456" data-name="Path 48456" d="M17.351,10A7.38,7.38,0,0,0,10,17.351v10.3A7.38,7.38,0,0,0,17.351,35h10.3A7.38,7.38,0,0,0,35,27.651v-10.3A7.38,7.38,0,0,0,27.651,10Zm0,2.273h10.3a5.072,5.072,0,0,1,5.079,5.079v10.3a5.072,5.072,0,0,1-5.079,5.079h-10.3a5.072,5.072,0,0,1-5.079-5.079v-10.3A5.072,5.072,0,0,1,17.351,12.273Zm11.862,2.486a1.03,1.03,0,1,0,1.03,1.03A1.025,1.025,0,0,0,29.213,14.759Zm-6.712.923A6.819,6.819,0,1,0,29.32,22.5,6.838,6.838,0,0,0,22.5,15.682Zm0,2.273A4.546,4.546,0,1,1,17.955,22.5,4.526,4.526,0,0,1,22.5,17.955Z" transform="translate(-10 -10)" fill="#565960"/>
</svg>
