<svg id="Group_14" data-name="Group 14" xmlns="http://www.w3.org/2000/svg" width="25.333" height="20.583" viewBox="0 0 25.333 20.583">
  <g id="Group_13" data-name="Group 13">
    <path id="Path_19" data-name="Path 19" d="M25.333,50.437a10.828,10.828,0,0,1-2.992.82,5.164,5.164,0,0,0,2.285-2.871,10.379,10.379,0,0,1-3.293,1.257,5.193,5.193,0,0,0-8.984,3.551,5.348,5.348,0,0,0,.12,1.184,14.7,14.7,0,0,1-10.7-5.432,5.195,5.195,0,0,0,1.6,6.941,5.129,5.129,0,0,1-2.346-.64v.057a5.217,5.217,0,0,0,4.161,5.1,5.184,5.184,0,0,1-1.362.171,4.592,4.592,0,0,1-.983-.089,5.243,5.243,0,0,0,4.853,3.618,10.435,10.435,0,0,1-6.439,2.215A9.728,9.728,0,0,1,0,66.253a14.621,14.621,0,0,0,7.967,2.331A14.68,14.68,0,0,0,22.749,53.8c0-.23-.008-.451-.019-.671A10.361,10.361,0,0,0,25.333,50.437Z" transform="translate(0 -48)" fill="#565960"/>
  </g>
</svg>
