<svg xmlns="http://www.w3.org/2000/svg" width="20.877" height="20.877" viewBox="0 0 20.877 20.877">
  <path id="linkedin" d="M19.371,0H1.506A1.506,1.506,0,0,0,0,1.506V19.371a1.506,1.506,0,0,0,1.506,1.506H19.371a1.506,1.506,0,0,0,1.506-1.506V1.506A1.506,1.506,0,0,0,19.371,0ZM7.405,15.78H4.863V8.132H7.405ZM6.134,7.087H6.118a1.325,1.325,0,1,1,.033-2.643,1.326,1.326,0,1,1-.017,2.643ZM16.572,15.78H14.03V11.688c0-1.028-.368-1.73-1.288-1.73a1.392,1.392,0,0,0-1.3.93,1.741,1.741,0,0,0-.084.62V15.78H8.812s.033-6.931,0-7.648h2.542V9.215a2.524,2.524,0,0,1,2.291-1.262c1.673,0,2.927,1.093,2.927,3.442Zm0,0" transform="translate(20.877 0) rotate(90)" fill="#fff"/>
</svg>
