<svg xmlns="http://www.w3.org/2000/svg" width="23.924" height="23.924" viewBox="0 0 23.924 23.924">
  <g id="surface1" transform="translate(23.924) rotate(90)">
    <path id="Path_48456" data-name="Path 48456" d="M7.035,0A7.062,7.062,0,0,0,0,7.035V16.89a7.062,7.062,0,0,0,7.035,7.035H16.89a7.062,7.062,0,0,0,7.035-7.035V7.035A7.062,7.062,0,0,0,16.89,0Zm0,2.175H16.89a4.853,4.853,0,0,1,4.86,4.86V16.89a4.853,4.853,0,0,1-4.86,4.86H7.035a4.853,4.853,0,0,1-4.86-4.86V7.035A4.853,4.853,0,0,1,7.035,2.175Zm11.35,2.379a.986.986,0,1,0,.986.986A.981.981,0,0,0,18.385,4.554Zm-6.423.884a6.525,6.525,0,1,0,6.525,6.525A6.543,6.543,0,0,0,11.962,5.437Zm0,2.175a4.35,4.35,0,1,1-4.35,4.35A4.331,4.331,0,0,1,11.962,7.612Z" fill="#fff"/>
  </g>
</svg>
