<svg xmlns="http://www.w3.org/2000/svg" width="22.011" height="18.343" viewBox="0 0 22.011 18.343">
  <g id="surface1" transform="translate(22.011) rotate(90)">
    <path id="Path_48455" data-name="Path 48455" d="M3.468,0,4.987,4.987V8.225H6.248V4.815L7.738,0H6.449l-.8,3.3H5.589L4.758,0Zm5.9,2.006a1.766,1.766,0,0,0-1.232.43,1.435,1.435,0,0,0-.459,1.118V6.706A1.7,1.7,0,0,0,8.14,7.939,1.557,1.557,0,0,0,9.315,8.4a1.533,1.533,0,0,0,1.634-1.662V3.582a1.542,1.542,0,0,0-.43-1.146A1.551,1.551,0,0,0,9.372,2.006Zm2.551.143v5.1a1.322,1.322,0,0,0,.2.8.7.7,0,0,0,.6.258,1.191,1.191,0,0,0,.631-.172,2.53,2.53,0,0,0,.659-.573v.659h1.118V2.149H14.015V6.764a1.565,1.565,0,0,1-.344.344.567.567,0,0,1-.315.115.261.261,0,0,1-.229-.086.525.525,0,0,1-.086-.315V2.149Zm-2.608.917a.54.54,0,0,1,.373.115A.378.378,0,0,1,9.8,3.5V6.821a.487.487,0,0,1-.115.373.508.508,0,0,1-.373.143.444.444,0,0,1-.344-.143.523.523,0,0,1-.115-.373V3.5a.4.4,0,0,1,.115-.315A.477.477,0,0,1,9.315,3.067ZM9.171,9.658c-2.178,0-4.3.025-6.391.115A2.668,2.668,0,0,0,.115,12.41C.029,13.552,0,14.7,0,15.849s.025,2.264.115,3.411A2.664,2.664,0,0,0,2.78,21.9c2.089.086,4.213.118,6.391.115s4.306-.029,6.391-.115a2.664,2.664,0,0,0,2.665-2.637c.086-1.146.118-2.268.115-3.411s-.025-2.3-.115-3.439a2.666,2.666,0,0,0-2.665-2.637C13.478,9.687,11.353,9.655,9.171,9.658ZM1.433,11.55h3.84a.109.109,0,0,1,.115.115V12.84a.109.109,0,0,1-.115.115H4.1v6.821a.109.109,0,0,1-.115.115H2.723c-.068,0-.143-.047-.143-.115V12.954H1.433c-.068,0-.143-.047-.143-.115V11.665C1.29,11.6,1.365,11.55,1.433,11.55Zm8.082,0h1.118c.068,0,.143.047.143.115v2.293a1.484,1.484,0,0,1,.287-.2,1.2,1.2,0,0,1,.573-.172,1.016,1.016,0,0,1,.888.43,2.065,2.065,0,0,1,.315,1.2v3.325a1.7,1.7,0,0,1-.287,1.06,1.019,1.019,0,0,1-.86.373,1.361,1.361,0,0,1-.631-.143,1.483,1.483,0,0,1-.287-.2v.143c0,.068-.075.115-.143.115H9.515a.109.109,0,0,1-.115-.115V11.665A.109.109,0,0,1,9.515,11.55ZM15.247,13.5a1.622,1.622,0,0,1,1.261.516,1.977,1.977,0,0,1,.459,1.376v1.548c0,.068-.075.115-.143.115H14.817v1a1.181,1.181,0,0,0,.086.573.311.311,0,0,0,.287.143.342.342,0,0,0,.287-.115,1.179,1.179,0,0,0,.086-.6v-.43a.109.109,0,0,1,.115-.115h1.146a.109.109,0,0,1,.115.115v.459a2.122,2.122,0,0,1-.43,1.462,1.727,1.727,0,0,1-1.347.516,1.64,1.64,0,0,1-1.29-.545,2.111,2.111,0,0,1-.459-1.433V15.39a1.866,1.866,0,0,1,.516-1.347A1.771,1.771,0,0,1,15.247,13.5Zm-10,.172H6.363c.068,0,.143.047.143.115v4.586c0,.15.011.208.029.229s.022.057.115.057a.581.581,0,0,0,.258-.115,1.3,1.3,0,0,0,.287-.258v-4.5a.109.109,0,0,1,.115-.115H8.426a.109.109,0,0,1,.115.115v5.99H8.57c0,.068-.075.115-.143.115H7.309a.109.109,0,0,1-.115-.115v-.344a2.19,2.19,0,0,1-.459.344,1.414,1.414,0,0,1-.716.2.751.751,0,0,1-.659-.315,1.421,1.421,0,0,1-.229-.86V13.785A.109.109,0,0,1,5.245,13.671Zm5.933,1.118a.426.426,0,0,0-.258.057.5.5,0,0,0-.143.115V18.6a.726.726,0,0,0,.172.143.547.547,0,0,0,.229.029c.143,0,.186-.039.2-.057a.607.607,0,0,0,.057-.344v-3.1a.616.616,0,0,0-.086-.373A.28.28,0,0,0,11.178,14.788Zm4.012.029a.335.335,0,0,0-.287.115.815.815,0,0,0-.086.459v.487h.745V15.39a.736.736,0,0,0-.115-.459A.288.288,0,0,0,15.19,14.817Z" transform="translate(0)" fill="#fff"/>
  </g>
</svg>
